<?xml version="1.0" encoding="UTF-8"?>
<svg width="200px" height="200px" viewBox="0 0 200 200" version="1.1" xmlns="http://www.w3.org/2000/svg" xmlns:xlink="http://www.w3.org/1999/xlink">
    <!-- Generator: Sketch 49.3 (51167) - http://www.bohemiancoding.com/sketch -->
    <title>mountains cut</title>
    <desc>Created with Sketch.</desc>
    <defs></defs>
    <g id="mountains-cut" stroke="none" stroke-width="1" fill="none" fill-rule="evenodd">
        <g id="mountain" transform="translate(0.000000, 41.000000)">
            <polygon id="Fill-4" fill="#3b5b6d" points="200.0001 129.4929 183.3081 106.8479 152.6771 87.9719 152.6771 120.2209 125.0591 80.4079 114.8701 102.4949 99.8471 70.4079 75.2051 92.8909 91.6251 114.8679 56.9051 95.0899 44.1131 110.0419 35.0461 92.8909 13.7701 101.4439 0.0001 119.9839 0.0001 159.7729 200.0001 159.7729"></polygon>
            <path d="M68.1769,11.0583 C68.1769,5.5023 72.6809,0.9993 78.2359,0.9993 C83.7909,0.9993 88.2939,5.5023 88.2939,11.0583 C88.2939,16.6133 83.7909,21.1173 78.2359,21.1173 C72.6809,21.1173 68.1769,16.6133 68.1769,11.0583" id="Fill-1" fill="#FFFFFF"></path>
            <polygon id="Fill-7" fill="#FFFFFF" points="118.6007 29.0671 69.1397 84.7731 47.5797 55.9201 13.7697 101.4441 35.0457 92.8911 44.1137 110.0421 56.9057 95.0891 91.6247 114.8681 75.2047 92.8911 99.8467 70.4081 114.8707 102.4951 125.0587 80.4081 152.6767 120.2201 152.6767 87.9711 183.3077 106.8481"></polygon>
        </g>
    </g>
</svg>