<?xml version="1.0" encoding="utf-8"?>
<!-- Generator: Adobe Illustrator 22.1.0, SVG Export Plug-In . SVG Version: 6.00 Build 0)  -->
<svg version="1.1" id="Layer_1" xmlns="http://www.w3.org/2000/svg" xmlns:xlink="http://www.w3.org/1999/xlink" x="0px" y="0px"
	 viewBox="0 0 353.8 353.9" style="enable-background:new 0 0 353.8 353.9;" xml:space="preserve">
<style type="text/css">
	.st0{fill:#FFFFFF;}
</style>
<title>planet</title>
<path d="M353.8,177c0,97.7-79.2,176.9-176.9,176.9S0,274.7,0,177C0,79.2,79.2,0,177,0S353.8,79.2,353.8,177"/>
<g>
	<path class="st0" d="M92.7,279.7c24.1,21.2,52.9,32.3,83.2,32.3c48.5,0,94-30.1,119-78.6c0.6-1.2,1.2-2.4,1.8-3.6H55.2
		C64.7,249.3,77.6,266.5,92.7,279.7z M189,305.5l1.4-1.7c5.7-6.9,10.9-18.1,15.4-33.2l0.1-0.5H235l-0.8,1.1
		c-12.4,17.5-27.3,29.1-43.1,33.7L189,305.5z M261.2,271.2c-13.9,13.5-29.7,23.4-47,29.4l-4.7,1.6l4.1-2.9c10-7,19.2-16.8,27.3-29
		l0.2-0.3h21.4L261.2,271.2z M258.4,234.8h30.1l-0.6,1c-5.9,10.6-12.8,20.3-20.6,28.9l-0.2,0.2h-23l0.6-1.1
		c5.1-8.7,9.7-18.3,13.5-28.7L258.4,234.8z M213.7,234.8h39.4l-0.4,0.9c-4,10.5-8.8,20.2-14.3,28.9l-0.2,0.3h-30.9l0.2-0.9
		c2.3-8.6,4.3-18.3,6-28.7L213.7,234.8z M178.5,234.8h30.2l-0.1,0.8c-1.8,10.5-3.8,20.2-6.2,28.9l-0.1,0.5h-23.7V234.8z M178.5,270
		h22.3l-0.3,0.9c-6.1,19.8-13.6,32.3-21.1,35.4l-1,0.4V270z M137.7,300.6c-17.3-6-33.2-15.9-47.1-29.3l-1.2-1.2h21.5l0.2,0.3
		c8.1,12.2,17.2,21.9,27.2,29l4,2.8L137.7,300.6z M160.7,304.8c-15.8-4.6-30.7-16.2-43.1-33.7l-0.8-1.1H146l0.1,0.5
		c4.5,15.1,9.6,26.2,15.4,33.2l1.4,1.7L160.7,304.8z M173.5,306.7l-1-0.4c-7.5-3-15-15.6-21.1-35.4l-0.3-0.9h22.3V306.7z
		 M173.5,234.8V265h-23.7l-0.1-0.5c-2.4-8.7-4.4-18.4-6.2-28.9l-0.1-0.8H173.5z M138.2,234.8l0.1,0.6c1.7,10.4,3.7,20.1,6,28.7
		l0.2,0.9h-30.9l-0.2-0.3c-5.4-8.7-10.2-18.4-14.3-28.9l-0.4-0.9H138.2z M93.6,235.3c3.8,10.4,8.3,20,13.5,28.7l0.6,1.1H84.6
		l-0.2-0.2c-7.8-8.6-14.7-18.4-20.6-28.9l-0.6-1h30.2L93.6,235.3z"/>
	<polygon class="st0" points="295.7,126.4 295.7,126.4 295.4,125.9 295.3,125.9 295.6,126.2 	"/>
	<path class="st0" d="M66,214.9c9,0,14.4-6,14.4-16c0-12.7-16-20.1-16-29.5c0-4.8,1.9-7.2,5.7-7.2c2.4,0,4,1.2,5.5,3l5-5.5
		c-2.4-3.3-6-5.2-11.1-5.2c-5.7,0-13.5,2.8-13.5,15.2c0,15.6,15.7,20.9,15.7,30.7c0,4.6-2.6,6.4-5.9,6.4c-2.7,0-4.9-1.8-6.1-3.1
		l-5.3,5.8C55.6,211.5,59.1,214.9,66,214.9z"/>
	<path class="st0" d="M83.6,214h8.3l2-13.7H104l2.1,13.7h8.7L104,155.4H93.8L83.6,214z M98.8,167.6l3.9,24.4h-7.6L98.8,167.6z"/>
	<path class="st0" d="M146.7,172.7v-3.3c0-11.8-5.4-14.1-16.1-14.1H120V214h9c11.8,0,17.8-2,17.8-15.8v-4.1c0-6.2-2.8-9.8-7.6-10.4
		C144.2,183.3,146.7,179.7,146.7,172.7z M138.3,197.9c0,6.2-1.5,8.1-7.6,8.1H128v-18.1h3.5c4.4,0,6.8,1.1,6.8,7.2V197.9z
		 M138.3,173.6c0,4.1-2,6.8-6.9,6.8H128v-17.1h3.2c5,0,7.1,1.5,7.1,7.6V173.6z"/>
	<polygon class="st0" points="170.8,214 170.8,189.5 182.4,155.4 174.1,155.4 167,178.8 159.9,155.4 151.1,155.4 162.7,189.5 
		162.7,214 	"/>
	<rect x="187.3" y="155.4" class="st0" width="8.1" height="58.6"/>
	<polygon class="st0" points="211.2,155.4 202.6,155.4 202.6,214 209.5,214 209.5,174 220.5,214 228.9,214 228.9,155.4 222,155.4 
		222,194.8 	"/>
	<polygon class="st0" points="253.5,214 253.5,189.5 265.1,155.4 256.8,155.4 249.8,178.8 242.7,155.4 233.8,155.4 245.4,189.5 
		245.4,214 	"/>
	<path class="st0" d="M283.3,154.3c-13.6,0-13.6,10.7-13.6,19.4v22c0,8.6,0,19.4,13.6,19.4c13.7,0,13.7-11.1,13.7-19.5v-21.7
		C297.1,165.3,297.1,154.3,283.3,154.3z M288.6,196.3c0,6.2,0,10.9-5,10.9c-5.2,0-5.2-4.8-5.2-10.9V173c0-6.3,0-11.1,5.2-11.1
		c5,0,5,4.7,5,10.9V196.3z"/>
	<path class="st0" d="M139.2,134.9h160.3l-23.1-30.8l-40.8-16.6l-3.7-2.7L206.2,50l-27.9-22.4l-0.5-0.8l-17.6,10.9l-0.1,0.1
		l-26.5,34.7l-46,26.7l-32.5,35.8L139.2,134.9L139.2,134.9z M144.5,129.6v-5.1l5.1,5.1H144.5z M155.7,129.6l-9.4-9.4l5.1-4.4
		l13.8,13.8H155.7z M171.4,129.6L154.8,113l5.1-4.4l21,21H171.4z M187.1,129.6l-23.8-23.8l5.1-4.4l28.2,28.2H187.1z M202.7,129.6
		l-31.1-31.1l5.1-4.4l35.5,35.5H202.7z M218.4,129.6l-38.3-38.3l1-0.9l0.5-1.5l1.3-4.4l45.1,45.1H218.4z M234.1,129.6l-49.8-49.8
		l2.2-7.4l57.2,57.2H234.1z M267.3,106.2l15.8,15.8l5.7,7.6h-7.7l-29.9-29.9L267.3,106.2z M211,65.6L227.5,88l0.5,0.7l0.7,0.5
		l3.7,2.7l0.5,0.4l0.6,0.2l7.4,3l34.1,34.1h-9.6l-73.9-73.9l0.3-0.9l0.5-1.8l-0.7-1.7l-3.3-8.4L211,65.6z M190.1,60.4l69.2,69.2
		h-9.6l-61.9-61.9L190.1,60.4z M67.6,129.6l23.2-26.1L136.4,77l0.8-0.5l26.6-34.8l14.7-9.3l8.2,21l-10.2,34l-37.3,32v10.2H67.6z"/>
</g>
</svg>
