<?xml version="1.0" encoding="utf-8"?>
<!-- Generator: Adobe Illustrator 22.1.0, SVG Export Plug-In . SVG Version: 6.00 Build 0)  -->
<svg version="1.1" id="Layer_1" xmlns="http://www.w3.org/2000/svg" xmlns:xlink="http://www.w3.org/1999/xlink" x="0px" y="0px"
	 viewBox="0 0 353.8 353.9" style="enable-background:new 0 0 353.8 353.9;" xml:space="preserve">
<style type="text/css">
	.st0{fill:#FFFFFF;}
</style>
<title>planet</title>
<path d="M353.8,177c0,97.7-79.2,176.9-176.9,176.9S0,274.7,0,177C0,79.2,79.2,0,177,0S353.8,79.2,353.8,177"/>
<g>
	<path class="st0" d="M99.9,111.2c0,7.1,1.4,10.6,6.6,10.6c4.3,0,6.6-2.2,8.1-3.6l6,7.5c-2,2.5-6.8,6-14.2,6c-14.4,0-17-9.2-17-22.2
		v-31c0-12.2,2.2-22.2,16.7-22.2c7.8,0,11.4,2.7,14.2,6.6l-6.6,6.5c-1.2-1.5-3.4-3.5-7-3.5c-4.9,0-6.8,2.9-6.8,10.6V111.2z"/>
	<polygon class="st0" points="125.9,130.3 125.9,57.6 135.9,57.6 135.9,119.9 153.2,119.9 153.2,130.3 	"/>
	<rect x="158.7" y="57.6" class="st0" width="10" height="72.7"/>
	<polygon class="st0" points="216.1,130.3 216.1,74.5 204.9,130.3 195.8,130.3 184.6,74.5 184.6,130.3 175.9,130.3 175.9,57.6 
		190.4,57.6 200.7,110.4 211,57.6 225.3,57.6 225.3,130.3 	"/>
	<path class="st0" d="M266,110.7c0,17.1-7.5,19.6-22.1,19.6h-11.2V57.6h13.1c13.3,0,20,2.8,20,17.5v4c0,8.6-3,13.1-9.2,13.5
		c6,0.7,9.4,5.2,9.4,12.9V110.7z M255.4,76.8c0-7.7-2.5-9.5-8.8-9.5h-3.9v21.2h4.1c6.2,0,8.6-3.2,8.6-8.4V76.8z M255.4,106.8
		c0-7.6-2.9-8.9-8.4-8.9h-4.3v22.5h3.3c7.5,0,9.4-2.4,9.4-10.1V106.8z"/>
	<polygon class="st0" points="92.5,167.1 92.5,179.9 103.4,179.9 103.4,186.5 92.5,186.5 92.5,207.5 86,207.5 86,160.4 104.3,160.4 
		104.3,167.1 	"/>
	<path class="st0" d="M130.4,192.7c0,6.8,0,15.7-11,15.7c-10.9,0-10.9-8.6-10.9-15.5v-17.7c0-6.9,0-15.5,10.9-15.5
		c11,0,11,8.9,11,15.7V192.7z M123.5,174.4c0-5,0-8.8-4-8.8c-4.2,0-4.2,3.9-4.2,8.9v18.8c0,4.9,0,8.8,4.2,8.8c4,0,4-3.8,4-8.8V174.4
		z"/>
	<path class="st0" d="M150.1,207.5l-1.2-9.6c-1-8.9-1.4-9.9-4.8-9.9h-2.4v19.5h-6.5v-47h8.4c5.7,0,12.4,0.6,12.4,10.2v3.9
		c0,6.5-1.8,8.6-5.6,9.5c3.1,0.8,3.7,3,4.5,9.5l1.8,13.9H150.1z M149.5,171.5c0-3.9-1-4.8-5.6-4.8h-2.1v15.2h1.2
		c5.7,0,6.5-1.8,6.5-7.3V171.5z"/>
	<polygon class="st0" points="183.5,187.8 183.5,207.5 177.1,207.5 177.1,187.8 167.7,160.4 174.8,160.4 180.5,179.3 186.2,160.4 
		192.9,160.4 	"/>
	<path class="st0" d="M217.5,192.7c0,6.8,0,15.7-11,15.7c-10.9,0-10.9-8.6-10.9-15.5v-17.7c0-6.9,0-15.5,10.9-15.5
		c11,0,11,8.9,11,15.7V192.7z M210.7,174.4c0-5,0-8.8-4.1-8.8c-4.2,0-4.2,3.9-4.2,8.9v18.8c0,4.9,0,8.8,4.2,8.8
		c4.1,0,4.1-3.8,4.1-8.8V174.4z"/>
	<path class="st0" d="M244.2,192.5c0,6.8,0,15.7-11,15.7c-10.9,0-10.9-8.6-10.9-15.5v-32.2h6.9v32.7c0,4.9,0,8.7,4.2,8.7
		c4.1,0,4.1-3.8,4.1-8.7v-32.7h6.9V192.5z"/>
	<path class="st0" d="M264,207.5l-1.2-9.6c-1-8.9-1.4-9.9-4.8-9.9h-2.4v19.5h-6.5v-47h8.4c5.7,0,12.4,0.6,12.4,10.2v3.9
		c0,6.5-1.8,8.6-5.6,9.5c3.1,0.8,3.7,3,4.5,9.5l1.8,13.9H264z M263.3,171.5c0-3.9-1-4.8-5.6-4.8h-2.1v15.2h1.2
		c5.7,0,6.5-1.8,6.5-7.3V171.5z"/>
	<polygon class="st0" points="126.5,296.6 117.5,296.6 110,253 102.5,296.6 93.6,296.6 83.2,232.4 92.6,232.4 98.5,275.7 106,232.4 
		114.3,232.4 121.8,275.7 127.6,232.4 136.7,232.4 	"/>
	<path class="st0" d="M170.9,276.3c0,9.3,0,21.4-15.1,21.4c-14.9,0-14.9-11.8-14.9-21.2v-24.1c0-9.4,0-21.2,14.9-21.2
		c15.1,0,15.1,12.1,15.1,21.4V276.3z M161.5,251.5c0-6.8,0-11.9-5.5-11.9c-5.7,0-5.7,5.3-5.7,12.1v25.6c0,6.7,0,11.9,5.7,11.9
		c5.5,0,5.5-5.2,5.5-11.9V251.5z"/>
	<path class="st0" d="M197.4,296.6l-1.6-13.1c-1.4-12.1-2-13.4-6.5-13.4H186v26.5h-8.8v-64.1h11.4c7.8,0,16.9,0.8,16.9,13.9v5.4
		c0,8.8-2.5,11.8-7.7,12.9c4.2,1.2,5.1,4.1,6.1,13l2.4,19H197.4z M196.5,247.5c0-5.3-1.3-6.6-7.7-6.6H186v20.8h1.7
		c7.7,0,8.8-2.4,8.8-10V247.5z"/>
	<polygon class="st0" points="211.4,296.6 211.4,232.4 220.2,232.4 220.2,287.4 235.5,287.4 235.5,296.6 	"/>
	<path class="st0" d="M269.7,277.2c0,16.8-4,19.3-19.6,19.3h-9.8v-64.1h10.3c14.9,0,19.1,3,19.1,18.9V277.2z M260.4,251.3
		c0-9.2-1.6-10.2-8.7-10.2h-2.5v46.6h2.2c8.5,0,9-1.2,9-11.4V251.3z"/>
</g>
</svg>
