<?xml version="1.0" encoding="UTF-8"?>
<svg width="200px" height="200px" viewBox="0 0 200 200" version="1.1" xmlns="http://www.w3.org/2000/svg" xmlns:xlink="http://www.w3.org/1999/xlink">
    <!-- Generator: Sketch 49.3 (51167) - http://www.bohemiancoding.com/sketch -->
    <title>heat</title>
    <desc>Created with Sketch.</desc>
    <defs></defs>
    <g id="heat" stroke="none" stroke-width="1" fill="none" fill-rule="evenodd">
        <g transform="translate(0.000000, 31.000000)">
            <path d="M130.1328,84.4941 C130.1328,83.1131 131.2518,81.9941 132.6328,81.9941 L157.1198,81.9941 C158.5008,81.9941 159.6198,83.1131 159.6198,84.4941 C159.6198,85.8751 158.5008,86.9941 157.1198,86.9941 L132.6328,86.9941 C131.2518,86.9941 130.1328,85.8751 130.1328,84.4941 Z M199.9998,169.0981 L199.9998,66.9951 L144.6678,66.9951 C144.5378,68.2541 143.4868,69.2391 142.1938,69.2391 L132.6328,69.2391 C131.3398,69.2391 130.2878,68.2541 130.1578,66.9951 L116.3028,66.9951 L116.3028,88.9031 C125.1958,94.5851 131.1248,104.4661 131.1248,115.3351 C130.6308,132.3801 116.7978,146.2131 99.7528,146.2131 C82.7088,146.2131 68.8748,132.3801 68.8748,115.3351 C68.8748,104.4661 74.5568,94.5851 83.6968,88.9031 L83.6968,66.9951 L-0.0002,66.9951 L-0.0002,169.0981 L199.9998,169.0981 Z" id="Fill-1" fill="#F16D49"></path>
            <path d="M100,137.5674 C87.648,137.5674 77.521,127.4394 77.521,115.0884 C77.521,105.4544 83.697,97.3024 92.342,94.0904 L92.342,47.5234 L107.657,47.5234 L107.657,94.0904 C116.303,97.3024 122.479,105.4544 122.479,115.0884 C122.479,127.4394 112.352,137.5674 100,137.5674 M116.303,88.9034 L116.303,16.3034 C116.303,7.1644 108.893,0.0004 100,0.0004 C90.86,0.0004 83.697,7.4114 83.697,16.3034 L83.697,88.9034 C74.557,94.5854 68.875,104.4654 68.875,115.3354 C68.875,132.3804 82.709,146.2134 99.753,146.2134 C116.798,146.2134 130.631,132.3804 131.125,115.3354 C131.125,104.4654 125.196,94.5854 116.303,88.9034" id="Fill-4" fill="#FFFFFF"></path>
            <path d="M100.8652,113.4131 L100.8652,117.6541 L97.7412,117.6541 L97.7412,121.7651 L107.4082,121.7651 L107.4082,127.0091 L91.8552,127.0091 L91.8552,117.6541 L89.8342,117.6541 L89.8342,113.4131 L91.8552,113.4131 L91.8552,111.2591 C91.8552,109.4501 92.2802,107.9111 93.1302,106.6401 C93.9792,105.3681 95.0892,104.4171 96.4592,103.7871 C97.8292,103.1571 99.2982,102.8421 100.8652,102.8421 C102.2902,102.8421 103.5012,103.0391 104.4982,103.4341 C105.4962,103.8281 106.4662,104.5021 107.4082,105.4561 L103.5282,109.3031 C103.1442,108.8971 102.7592,108.5931 102.3692,108.3911 C101.9802,108.1871 101.4782,108.0861 100.8652,108.0861 C99.9122,108.0861 99.1522,108.3601 98.5882,108.9081 C98.0232,109.4561 97.7412,110.2841 97.7412,111.3911 L97.7412,113.4131 L100.8652,113.4131 Z M107.6572,94.0911 L107.6572,66.9951 L107.6572,47.5231 L92.3422,47.5231 L92.3422,66.9951 L92.3422,94.0911 C83.6972,97.3031 77.5212,105.4541 77.5212,115.0881 C77.5212,127.4391 87.6482,137.5671 100.0002,137.5671 C112.3512,137.5671 122.4782,127.4391 122.4782,115.0881 C122.4782,105.4541 116.3032,97.3031 107.6572,94.0911 Z" id="Fill-6" fill="#F16D49"></path>
            <path d="M91.8555,113.4131 L89.8345,113.4131 L89.8345,117.6541 L91.8555,117.6541 L91.8555,127.0091 L107.4085,127.0091 L107.4085,121.7651 L97.7415,121.7651 L97.7415,117.6541 L100.8655,117.6541 L100.8655,113.4131 L97.7415,113.4131 L97.7415,111.3911 C97.7415,110.2841 98.0235,109.4561 98.5875,108.9081 C99.1525,108.3601 99.9125,108.0861 100.8655,108.0861 C101.4785,108.0861 101.9805,108.1871 102.3695,108.3911 C102.7585,108.5931 103.1445,108.8971 103.5285,109.3031 L107.4085,105.4561 C106.4655,104.5021 105.4965,103.8281 104.4985,103.4341 C103.5015,103.0391 102.2905,102.8421 100.8655,102.8421 C99.2975,102.8421 97.8295,103.1571 96.4595,103.7871 C95.0885,104.4171 93.9795,105.3681 93.1295,106.6401 C92.2805,107.9111 91.8555,109.4501 91.8555,111.2591 L91.8555,113.4131 Z" id="Fill-8" fill="#FFFFFF"></path>
            <path d="M132.6328,15.9736 L157.1198,15.9736 C158.5008,15.9736 159.6198,14.8546 159.6198,13.4736 C159.6198,12.0926 158.5008,10.9736 157.1198,10.9736 L132.6328,10.9736 C131.2518,10.9736 130.1328,12.0926 130.1328,13.4736 C130.1328,14.8546 131.2518,15.9736 132.6328,15.9736" id="Fill-10" fill="#FFFFFF"></path>
            <path d="M132.6328,33.7285 L142.1938,33.7285 C143.5738,33.7285 144.6938,32.6095 144.6938,31.2285 C144.6938,29.8475 143.5738,28.7285 142.1938,28.7285 L132.6328,28.7285 C131.2518,28.7285 130.1328,29.8475 130.1328,31.2285 C130.1328,32.6095 131.2518,33.7285 132.6328,33.7285" id="Fill-12" fill="#FFFFFF"></path>
            <path d="M132.6328,51.4834 L157.1198,51.4834 C158.5008,51.4834 159.6198,50.3644 159.6198,48.9834 C159.6198,47.6024 158.5008,46.4834 157.1198,46.4834 L132.6328,46.4834 C131.2518,46.4834 130.1328,47.6024 130.1328,48.9834 C130.1328,50.3644 131.2518,51.4834 132.6328,51.4834" id="Fill-14" fill="#FFFFFF"></path>
            <path d="M157.1201,86.9941 C158.5011,86.9941 159.6201,85.8751 159.6201,84.4941 C159.6201,83.1131 158.5011,81.9941 157.1201,81.9941 L132.6331,81.9941 C131.2521,81.9941 130.1331,83.1131 130.1331,84.4941 C130.1331,85.8751 131.2521,86.9941 132.6331,86.9941 L157.1201,86.9941 Z" id="Fill-16" fill="#FFFFFF"></path>
            <path d="M142.1934,69.2392 L132.6324,69.2392 C131.2524,69.2392 130.1324,68.1202 130.1324,66.7392 C130.1324,65.3582 131.2524,64.2392 132.6324,64.2392 L142.1934,64.2392 C143.5744,64.2392 144.6934,65.3582 144.6934,66.7392 C144.6934,68.1202 143.5744,69.2392 142.1934,69.2392" id="Fill-18" fill="#FFFFFF"></path>
        </g>
    </g>
</svg>