<?xml version="1.0" encoding="utf-8"?>
<!-- Generator: Adobe Illustrator 22.0.1, SVG Export Plug-In . SVG Version: 6.00 Build 0)  -->
<svg version="1.1" id="Layer_1" xmlns="http://www.w3.org/2000/svg" xmlns:xlink="http://www.w3.org/1999/xlink" x="0px" y="0px"
	 viewBox="0 0 260 260" style="enable-background:new 0 0 260 260;" xml:space="preserve">
<style type="text/css">
	.st1{fill:#F36C45;}
	.st2{fill:#FFFFFF;}
</style>
<g>
	<path class="st1" d="M195.8,104.3c-2.5-0.5-5.1-0.2-7.4,0.6c-0.5-1.1-1-2.1-1.5-3.1c-6-15.1-7.4-30.5-7.7-36.8c0-0.4,0-0.8,0-1.2
		c0-22.2-22-40.1-49.1-40.1c-26.4,0-47.9,17-49.1,38.3l-0.1,0c0,0,0.1,20.8-8.2,40.9c0,0,0,0,0,0c-0.3,0.7-0.7,1.4-1,2.1
		c-2.4-0.9-5-1.1-7.5-0.6c-8.3,1.6-13.5,10.5-11.7,19.8c1.3,6.4,5.5,11.4,10.8,13.3c-0.2,2.9-0.4,5.8-0.4,8.8c0,3.2,0.2,6.3,0.4,9.4
		c-0.7,4-1.1,8.1-1.1,12.3c0,37.9,30.4,68.6,67.8,68.6s67.8-30.7,67.8-68.6c0-4.2-0.4-8.3-1.1-12.3c0.3-3.1,0.4-6.2,0.4-9.4
		c0-3-0.1-5.9-0.4-8.8c5.2-2,9.5-6.9,10.7-13.3C209.3,114.7,204.1,105.9,195.8,104.3z"/>
	<g>
		<path class="st2" d="M175.4,113.6c2-6-2.3-12.2-8.6-12.2H93.2c-6.3,0-10.6,6.2-8.6,12.2c3.5,10.4,11.6,19,22,24.3
			c-7.1,6.4-11.6,15.6-11.6,25.8v20c0,19.2,15.7,35,35,35c19.2,0,35-15.7,35-35v-20c0-10.2-4.5-19.4-11.6-25.8
			C163.8,132.6,171.8,124,175.4,113.6z"/>
		<rect x="90.6" y="181.4" class="st1" width="78.8" height="5.3"/>
		<circle class="st1" cx="113.5" cy="120" r="6.6"/>
		<path class="st1" d="M117.6,158.7l-3.7-3.7c-1.6-1.6-1.6-4.1,0-5.7l0,0c1.6-1.6,4.1-1.6,5.7,0l3.7,3.7c1.6,1.6,1.6,4.1,0,5.7l0,0
			C121.8,160.3,119.2,160.3,117.6,158.7z"/>
		<circle class="st1" cx="146.5" cy="120" r="6.6"/>
		<path class="st1" d="M142.4,158.7l3.7-3.7c1.6-1.6,1.6-4.1,0-5.7l0,0c-1.6-1.6-4.1-1.6-5.7,0l-3.7,3.7c-1.6,1.6-1.6,4.1,0,5.7l0,0
			C138.2,160.3,140.8,160.3,142.4,158.7z"/>
	</g>
</g>
</svg>
