<svg id="Layer_1" data-name="Layer 1" xmlns="http://www.w3.org/2000/svg" viewBox="0 0 353.84 353.88">
  <title>planet</title>
  <path d="M353.84,177A176.92,176.92,0,1,1,0,177C0,79.25,79.21,0,177,0S353.84,79.25,353.84,177"/>
  <path d="M143.35,106.31c0,16.25-3.9,18.79-19,18.79h-9.52V62.76h10c14.47,0,18.53,3,18.53,18.35v25.2h0Zm-9.1-25.2c0-8.92-1.56-9.86-8.48-9.86h-2.41v45.29h2.16c8.22,0,8.74-1.24,8.74-11.09V81.11h0Z" fill="#fff"/>
  <path d="M177.76,105.44c0,9,0,20.79-14.63,20.79-14.46,0-14.46-11.45-14.46-20.62V82.14c0-9.17,0-20.61,14.46-20.61,14.63,0,14.63,11.78,14.63,20.79v23.13h0Zm-9.09-24.19c0-6.58,0-11.6-5.36-11.6-5.54,0-5.54,5.11-5.54,11.79v24.85c0,6.48,0,11.61,5.54,11.61,5.36,0,5.36-5,5.36-11.61v-25Z" fill="#fff"/>
  <rect x="196.88" y="62.75" width="8.57" height="62.33" fill="#fff"/>
  <polygon points="230 71.33 230 125.09 221.42 125.09 221.42 71.33 209.65 71.33 209.65 62.75 241.77 62.75 241.77 71.33 230 71.33" fill="#fff"/>
  <polygon points="67.87 150.29 67.87 167.28 82.33 167.28 82.33 176 67.87 176 67.87 203.79 59.3 203.79 59.3 141.45 83.54 141.45 83.54 150.29 67.87 150.29" fill="#fff"/>
  <path d="M117.27,184.14c0,9,0,20.76-14.64,20.76-14.44,0-14.44-11.41-14.44-20.58V160.83c0-9.17,0-20.61,14.44-20.61,14.64,0,14.64,11.8,14.64,20.79v23.12h0ZM108.17,160c0-6.57,0-11.6-5.36-11.6-5.54,0-5.54,5.12-5.54,11.8V185c0,6.48,0,11.62,5.54,11.62,5.36,0,5.36-5.05,5.36-11.62V160Z" fill="#fff"/>
  <path d="M142.53,203.79L141,191.06c-1.39-11.76-1.91-13.07-6.33-13.07h-3.2v25.8h-8.57V141.45H134c7.55,0,16.47.79,16.47,13.52v5.2c0,8.56-2.43,11.4-7.46,12.52,4.06,1.14,4.94,4,6,12.63l2.34,18.45h-8.75Zm-0.86-47.7c0-5.12-1.29-6.4-7.46-6.4h-2.77v20.18h1.66c7.53,0,8.57-2.34,8.57-9.68V156.1h0Z" fill="#fff"/>
  <polygon points="186.77 177.73 186.77 203.79 178.19 203.79 178.19 177.73 165.81 141.45 175.26 141.45 182.77 166.39 190.32 141.45 199.15 141.45 186.77 177.73" fill="#fff"/>
  <path d="M229.62,184.14c0,9,0,20.76-14.62,20.76-14.46,0-14.46-11.41-14.46-20.58V160.83c0-9.17,0-20.61,14.46-20.61,14.62,0,14.62,11.8,14.62,20.79v23.12h0ZM220.53,160c0-6.57,0-11.6-5.36-11.6-5.55,0-5.55,5.12-5.55,11.8V185c0,6.48,0,11.62,5.55,11.62,5.36,0,5.36-5.05,5.36-11.62V160Z" fill="#fff"/>
  <path d="M262.8,184c0,9,0,20.77-14.62,20.77s-14.48-11.41-14.48-20.59V141.45h9.1v43.37c0,6.51,0,11.62,5.54,11.62,5.36,0,5.36-5,5.36-11.62V141.45h9.1V184h0Z" fill="#fff"/>
  <path d="M288.16,203.79l-1.55-12.73c-1.4-11.76-1.91-13.07-6.34-13.07h-3.2v25.8H268.5V141.45h11.08c7.54,0,16.46.79,16.46,13.52v5.2c0,8.56-2.42,11.4-7.44,12.52,4.06,1.14,4.92,4,6,12.63l2.33,18.45h-8.77v0Zm-0.87-47.7c0-5.12-1.3-6.4-7.45-6.4h-2.77v20.18h1.64c7.54,0,8.58-2.34,8.58-9.68V156.1h0Z" fill="#fff"/>
  <path d="M91,259.3v23.18H82.38V220.16H93.64c11.42,0,17.13,1.91,17.13,15v8.25c0,13.47-5.18,15.92-16.52,15.92H91v0Zm10.9-22.71c0-7-2.17-8.13-7.53-8.13H91v22.6h3.55c5.27,0,7.35-1.72,7.35-7.18v-7.29h0Z" fill="#fff"/>
  <polygon points="115.69 282.49 115.69 220.16 124.27 220.16 124.27 273.58 139.07 273.58 139.07 282.49 115.69 282.49" fill="#fff"/>
  <path d="M166.25,282.48L164,267.87h-10.7l-2.17,14.61h-8.82l10.82-62.32H163.9l11.6,62.32h-9.25Zm-7.88-49.34-3.9,26h8Z" fill="#fff"/>
  <polygon points="199.04 282.49 187.35 239.88 187.35 282.49 179.98 282.49 179.98 220.16 189.17 220.16 200.68 262.06 200.68 220.16 208.04 220.16 208.04 282.49 199.04 282.49" fill="#fff"/>
  <polygon points="213.9 282.49 213.9 220.16 238.12 220.16 238.12 228.99 222.46 228.99 222.46 245.97 237.62 245.97 237.62 254.7 222.46 254.7 222.46 273.58 238.73 273.58 238.73 282.49 213.9 282.49" fill="#fff"/>
  <polygon points="262.39 228.72 262.39 282.48 253.81 282.48 253.81 228.72 242.03 228.72 242.03 220.16 274.16 220.16 274.16 228.72 262.39 228.72" fill="#fff"/>
</svg>
