<?xml version="1.0" encoding="UTF-8"?>
<svg width="200px" height="200px" viewBox="0 0 200 200" version="1.1" xmlns="http://www.w3.org/2000/svg" xmlns:xlink="http://www.w3.org/1999/xlink">
    <!-- Generator: Sketch 49.3 (51167) - http://www.bohemiancoding.com/sketch -->
    <title>cut</title>
    <desc>Created with Sketch.</desc>
    <defs></defs>
    <g id="cut" stroke="none" stroke-width="1" fill="none" fill-rule="evenodd">
        <g id="avatar_test_sketch_cut_shapes" transform="translate(15.000000, 29.000000)" fill-rule="nonzero">
            <path d="M143.1,131.4 C133.7,127 119.2,123.4 108.7,121.1 C108.2,138.9 105.9,150.4 85.2,150.4 C64.4,150.4 63.1,138.8 63.2,120.7 C52.6,122.9 36.9,126.8 27,131.4 C10.9,138.9 0.1,171.2 0.1,171.2 L170,171.2 C169.9,171.2 159.2,138.9 143.1,131.4 Z" id="Shape" fill="#3b5b6d"></path>
            <path d="M125.9,60.4 C125.2,63.7 124.3,66.7 122.8,69.1 C122.7,69.1 122.6,69.1 122.5,69.2 C121.5,62.9 120.8,56.6 119.5,50.4 C113.7,50.4 107.2,48.8 102.6,46.7 C90.2,56 69.4,45.7 58.4,34.8 C55.8,42.3 52.7,59.9 47.2,63.1 C46.2,62.3 45.3,61.4 44.5,60.3 C40.5,60.9 36.7,64.3 38,71.2 C39.6,80.2 44.7,83.7 48.9,83.7 C51.8,94.6 56.9,103.5 63.2,109.8 C63.1,133.9 60.4,150.3 85.1,150.3 C110.6,150.3 108.2,132.8 108.8,107.5 C114.1,101.4 118.3,93.3 120.9,83.7 C125.1,83.7 130.2,80.2 131.8,71.2 C133.1,64.6 129.7,61.2 125.9,60.4 Z" id="Shape" fill="#FFFFFF"></path>
            <path d="M133,37.4 C131.2,23.8 111.9,11.5 101.4,5.4 C84.6,-4.4 57.1,-0.7 55,15.9 C38.6,17.6 33.6,52.2 47.3,63.1 C52.7,59.9 55.9,42.3 58.5,34.8 C69.5,45.6 90.3,55.9 102.7,46.7 C107.3,48.8 113.8,50.5 119.6,50.4 C120.9,56.5 121.6,62.9 122.6,69.2 C122.7,69.2 122.8,69.2 122.9,69.1 C126,64 127,56 127.2,49 C131.3,47.3 133.9,43.7 133,37.4 Z" id="Shape" fill="#3b5b6d"></path>
        </g>
    </g>
</svg>