<?xml version="1.0" encoding="UTF-8"?>
<svg width="388px" height="66px" viewBox="0 0 388 66" version="1.1" xmlns="http://www.w3.org/2000/svg" xmlns:xlink="http://www.w3.org/1999/xlink">
    <!-- Generator: Sketch 51.2 (57519) - http://www.bohemiancoding.com/sketch -->
    <title>Logo_RaiseNow_BW</title>
    <desc>Created with Sketch.</desc>
    <defs></defs>
    <g id="Logo_RaiseNow_BW" stroke="none" stroke-width="1" fill="none" fill-rule="evenodd">
        <g id="Logo" fill="#000000">
            <path d="M17.0468244,14.7958321 C15.9272519,14.7958321 13.086855,15.0535115 11.7954962,15.3985649 L11.7954962,30.9807634 C14.3782137,31.4976031 17.0468244,31.4976031 20.2322748,31.4976031 C25.0541374,31.4976031 29.1,28.7430992 29.1,23.4902901 C29.1,16.3448702 25.485084,14.7958321 20.3181679,14.7958321 L17.0468244,14.7958321 Z M38.9140305,64.5590534 C35.1273282,64.5590534 31.8545038,63.0959084 30.3054656,59.3062443 L25.9145496,48.6303206 C23.2459389,42.1750076 20.7491145,41.7440611 17.6495573,41.2257405 C15.0668397,40.7962748 13.0009618,40.4527023 11.7954962,40.4527023 L11.7954962,64.1281069 L8.00731298,64.1281069 C2.75450382,64.1281069 0,60.9426565 0,56.206687 L0,6.78851908 C2.49682443,5.84221374 10.7618168,4.63674809 15.1527328,4.63674809 L21.6954198,4.63674809 C33.4050229,4.63674809 41.0672824,11.6962748 41.0672824,21.5961985 C41.0672824,29.6035115 35.8159542,36.2335725 28.9282137,37.265771 C32.1136641,38.5571298 34.7822748,42.0876336 36.2454198,45.5307634 L40.9813893,56.5517405 C42.4445344,59.9948702 43.9076794,61.6312824 44.5963053,62.6634809 C43.2190534,64.1281069 42.186855,64.5590534 38.9140305,64.5590534 Z" id="Fill-1"></path>
            <path d="M75.3341985,43.8958321 L71.2024427,43.8958321 C62.4206107,43.8958321 59.9237863,45.9617099 59.9237863,49.7498931 C59.9237863,53.3648092 62.8500763,55.5180611 67.9310992,55.5180611 C72.9247481,55.5180611 75.3341985,53.1071298 75.3341985,48.3726412 L75.3341985,43.8958321 Z M69.0506718,64.902626 L66.7256336,64.902626 C55.7046565,64.902626 48.129771,58.7049924 48.129771,50.1808397 C48.129771,41.9158473 54.1556183,35.6308397 71.2024427,35.6308397 L75.2483053,35.6308397 L75.2483053,35.0281069 C75.2483053,28.4839389 72.1487481,26.5039542 65.2610076,26.5039542 C56.9101221,26.5039542 52.2615267,29.6894046 50.5392214,31.8426565 L50.1082748,31.8426565 L50.1082748,28.1403664 C50.1082748,22.9749313 54.7583511,16.7758168 66.983313,16.7758168 C77.3156641,16.7758168 86.612855,21.5961985 86.612855,37.6093435 L86.612855,48.2852672 C86.612855,58.1007786 79.381542,64.902626 69.0506718,64.902626 Z" id="Fill-4"></path>
            <path d="M109.583344,64.5590534 C100.629725,64.5590534 95.7219695,59.4795115 95.7219695,50.0934656 L95.7219695,18.6699084 L98.993313,18.6699084 C104.160229,18.6699084 107.258305,21.4244122 107.258305,27.2799542 L107.258305,48.9738931 C107.258305,53.6239695 109.239771,55.0871145 114.319313,55.0871145 L116.471084,55.0871145 L116.471084,57.5854198 C116.471084,62.5775878 114.491099,64.5590534 109.583344,64.5590534 Z M101.404244,14.3648855 C97.7034351,14.3648855 94.689771,11.2653282 94.689771,7.56303817 C94.689771,3.86074809 97.7034351,0.848564885 101.404244,0.848564885 C105.106534,0.848564885 108.206092,3.86074809 108.206092,7.56303817 C108.206092,11.2653282 105.106534,14.3648855 101.404244,14.3648855 Z" id="Fill-5"></path>
            <path d="M136.961038,65.1603053 C128.438366,65.1603053 122.065985,60.7693893 122.065985,56.0349008 L122.065985,50.7820916 L122.496931,50.7820916 C124.993756,53.1071298 130.935191,55.1744885 136.444198,55.1744885 C142.126473,55.1744885 144.882458,53.5380763 144.882458,50.0934656 C144.882458,47.4263359 143.246046,46.1334962 135.238733,45.0139237 C125.424702,43.6381527 120.688733,39.7625954 120.688733,32.7030687 C120.688733,24.0086107 128.52426,16.6040305 140.405649,16.6040305 C150.908305,16.6040305 155.213328,22.027145 155.213328,26.5039542 L155.213328,30.8948702 L154.782382,30.8948702 C152.37145,28.4839389 147.034229,26.5913282 141.52374,26.5913282 C134.464214,26.5913282 132.22655,28.7430992 132.22655,31.7552824 C132.22655,34.0803206 133.603802,35.0281069 141.52374,36.3194656 C151.167466,37.8685038 156.33142,42.0876336 156.33142,49.4922137 C156.33142,59.3062443 149.44516,65.1603053 136.961038,65.1603053" id="Fill-6"></path>
            <path d="M184.828687,26.2462748 C179.233786,26.2462748 175.35971,30.8089771 175.10055,36.1461985 L175.014656,37.6967176 L180.180092,37.6967176 C191.113695,37.6967176 193.612,36.4912519 193.612,33.2199084 C193.612,28.5698321 190.16887,26.2462748 184.828687,26.2462748 Z M182.676916,45.8772977 L175.10055,45.8772977 C175.962443,51.7313588 181.299664,55.4336489 188.101511,55.4336489 C192.921893,55.4336489 198.605649,54.4843817 202.307939,51.0412519 L202.737405,51.0412519 L202.737405,54.6576489 C202.737405,60.5976031 198.690061,65.1603053 185.94826,65.1603053 C174.411924,65.1603053 163.134748,56.0349008 163.134748,41.8299542 C163.134748,26.3321679 172.603725,16.6040305 185.862366,16.6040305 C195.504611,16.6040305 204.45971,23.4902901 204.45971,34.5971603 C204.45971,43.1198321 198.002916,45.8772977 182.676916,45.8772977 Z" id="Fill-7"></path>
            <path d="M256.719756,64.1281069 C252.157053,64.1281069 247.163405,62.750855 239.846198,48.5444275 L229.084382,27.6235267 C227.447969,24.3521832 226.15513,22.1145191 225.122931,20.7357863 L225.122931,64.1281069 L220.474336,64.1281069 C217.029725,64.1281069 213.327435,61.5453893 213.327435,56.3784733 L213.327435,5.15358779 L219.181496,5.15358779 C226.93113,5.15358779 231.92626,9.28534351 235.886229,17.2067634 L246.217099,37.8685038 C247.422565,40.2794351 248.799817,43.808458 249.658748,45.7899237 L249.658748,5.15358779 L254.911557,5.15358779 C257.926702,5.15358779 261.369832,8.16577099 261.369832,11.9539542 L261.369832,64.1281069 L256.719756,64.1281069" id="Fill-8"></path>
            <path d="M292.362443,26.9349008 C285.733863,26.9349008 282.375145,32.4453893 282.375145,40.1076489 C282.375145,49.3189466 285.733863,54.8279542 293.396122,54.8279542 C300.112076,54.8279542 303.38342,49.3189466 303.38342,41.7440611 C303.38342,32.4453893 299.94029,26.9349008 292.362443,26.9349008 Z M293.396122,16.6040305 C307.343389,16.6040305 315.350702,27.7967939 315.350702,40.1076489 C315.350702,54.054916 307.343389,65.1603053 292.362443,65.1603053 C278.415176,65.1603053 270.409344,54.054916 270.409344,41.7440611 C270.409344,27.7967939 278.415176,16.6040305 293.396122,16.6040305 Z" id="Fill-9"></path>
            <path d="M381.901588,41.8299542 C378.727985,51.7343206 374.153435,60.1681374 371.141252,64.6434656 L369.245679,64.6434656 C365.630763,64.6434656 362.874779,61.2877099 361.32574,58.4458321 C358.483863,53.2803969 354.95484,44.6703511 353.662,37.6093435 C352.198855,44.6703511 346.77574,59.0485649 342.642504,64.6434656 L341.093466,64.6434656 C337.648855,64.6434656 334.378992,61.2003359 332.828473,58.4458321 C326.111038,46.5644427 321.63571,33.1340153 319.569832,17.636229 L325.767466,17.636229 C329.728916,17.636229 332.052473,20.6498931 332.48342,23.2326107 C333.860672,31.1540305 336.013924,39.9358626 339.888,48.3726412 C344.105649,39.1598626 346.430687,29.1740458 348.669832,19.3585344 L352.458015,19.3585344 C355.987038,19.3585344 359.517542,20.8231603 360.635634,25.9012214 C362.014366,32.186229 364.856244,41.8299542 368.127588,48.3726412 C372.517023,38.6445038 375.013847,16.0353588 376.822046,5.53122137 L381.643908,5.53122137 C384.915252,5.53122137 387.24029,6.99436641 387.24029,10.5248702 C387.24029,12.3330687 384.958198,32.2972977 381.901588,41.8299542" id="Fill-10"></path>
        </g>
    </g>
</svg>